<?xml version="1.0" encoding="UTF-8"?>
<svg xmlns="http://www.w3.org/2000/svg" viewBox="0 0 190 70" role="img" aria-label="Bernard">
  <text x="0" y="30"
        font-family="Geist, -apple-system, BlinkMacSystemFont, 'Segoe UI', Helvetica, Arial, sans-serif"
        font-weight="700" font-size="30" fill="#1c4d37">
    <tspan fill="#10B981">B</tspan>ernard
  </text>
  <!-- Phonetic voiceprint of "Bernard": b·er·n·ar·d — two-hump amplitude envelope -->
  <g fill="#10B981">
    <rect x="0.00"  y="43.00" width="2.2" height="6"  rx="0"/>
    <rect x="3.70"  y="44.00" width="2.2" height="4"  rx="0"/>
    <rect x="7.40"  y="40.50" width="2.2" height="11" rx="0"/>
    <rect x="11.10" y="36.50" width="2.2" height="19" rx="0"/>
    <rect x="14.80" y="32.50" width="2.2" height="27" rx="0"/>
    <rect x="18.50" y="30.00" width="2.2" height="32" rx="0"/>
    <rect x="22.20" y="31.00" width="2.2" height="30" rx="0"/>
    <rect x="25.90" y="34.00" width="2.2" height="24" rx="0"/>
    <rect x="29.60" y="38.00" width="2.2" height="16" rx="0"/>
    <rect x="33.30" y="39.50" width="2.2" height="13" rx="0"/>
    <rect x="37.00" y="37.00" width="2.2" height="18" rx="0"/>
    <rect x="40.70" y="32.50" width="2.2" height="27" rx="0"/>
    <rect x="44.40" y="28.00" width="2.2" height="36" rx="0"/>
    <rect x="48.10" y="25.00" width="2.2" height="42" rx="0"/>
    <rect x="51.80" y="26.50" width="2.2" height="39" rx="0"/>
    <rect x="55.50" y="30.00" width="2.2" height="32" rx="0"/>
    <rect x="59.20" y="34.00" width="2.2" height="24" rx="0"/>
    <rect x="62.90" y="38.00" width="2.2" height="16" rx="0"/>
    <rect x="66.60" y="41.00" width="2.2" height="10" rx="0"/>
    <rect x="70.30" y="43.00" width="2.2" height="6"  rx="0"/>
    <rect x="74.00" y="44.00" width="2.2" height="4"  rx="0"/>
  </g>
</svg>
