<?xml version="1.0" encoding="UTF-8"?>
<svg xmlns="http://www.w3.org/2000/svg" viewBox="0 0 100 100" role="img" aria-label="Bernard">
  <defs>
    <!-- Gradient sweeps left-to-right across the full bar group (x=9 to x=91) -->
    <linearGradient id="wg" x1="9" x2="91" y1="0" y2="0" gradientUnits="userSpaceOnUse">
      <stop offset="0" stop-color="#1f8a5f"/>
      <stop offset="1" stop-color="#34D399"/>
    </linearGradient>
  </defs>
  <rect width="100" height="100" rx="22" fill="#1c4d37"/>
  <!-- 19-bar phonetic voiceprint, gradient emerald→light, two-hump shape -->
  <!-- Heights: [9,15,26,41,56,63,59,48,35,26,32,43,59,74,78,67,48,28,11] -->
  <!-- w=2.8 gap=1.6 step=4.4 offset=9.0 cy=50 -->
  <g fill="url(#wg)">
    <rect x="9.00"  y="45.50" width="2.8" height="9"  rx="0"/>
    <rect x="13.40" y="42.50" width="2.8" height="15" rx="0"/>
    <rect x="17.80" y="37.00" width="2.8" height="26" rx="0"/>
    <rect x="22.20" y="29.50" width="2.8" height="41" rx="0"/>
    <rect x="26.60" y="22.00" width="2.8" height="56" rx="0"/>
    <rect x="31.00" y="18.50" width="2.8" height="63" rx="0"/>
    <rect x="35.40" y="20.50" width="2.8" height="59" rx="0"/>
    <rect x="39.80" y="26.00" width="2.8" height="48" rx="0"/>
    <rect x="44.20" y="32.50" width="2.8" height="35" rx="0"/>
    <rect x="48.60" y="37.00" width="2.8" height="26" rx="0"/>
    <rect x="53.00" y="34.00" width="2.8" height="32" rx="0"/>
    <rect x="57.40" y="28.50" width="2.8" height="43" rx="0"/>
    <rect x="61.80" y="20.50" width="2.8" height="59" rx="0"/>
    <rect x="66.20" y="13.00" width="2.8" height="74" rx="0"/>
    <rect x="70.60" y="11.00" width="2.8" height="78" rx="0"/>
    <rect x="75.00" y="16.50" width="2.8" height="67" rx="0"/>
    <rect x="79.40" y="26.00" width="2.8" height="48" rx="0"/>
    <rect x="83.80" y="36.00" width="2.8" height="28" rx="0"/>
    <rect x="88.20" y="44.50" width="2.8" height="11" rx="0"/>
  </g>
</svg>
