<?xml version="1.0" encoding="UTF-8"?>
<svg xmlns="http://www.w3.org/2000/svg" version="1.2" baseProfile="tiny-ps" viewBox="0 0 64 64">
<title>Bernard</title>
<rect width="64" height="64" rx="14" fill="#0C7580"/>
<g fill="#FFFFFF" transform="translate(8,3) scale(0.63)">
<rect x="0.00"  y="43.00" width="2.2" height="6"  />
<rect x="3.70"  y="44.00" width="2.2" height="4"  />
<rect x="7.40"  y="40.50" width="2.2" height="11" />
<rect x="11.10" y="36.50" width="2.2" height="19" />
<rect x="14.80" y="32.50" width="2.2" height="27" />
<rect x="18.50" y="30.00" width="2.2" height="32" />
<rect x="22.20" y="31.00" width="2.2" height="30" />
<rect x="25.90" y="34.00" width="2.2" height="24" />
<rect x="29.60" y="38.00" width="2.2" height="16" />
<rect x="33.30" y="39.50" width="2.2" height="13" />
<rect x="37.00" y="37.00" width="2.2" height="18" />
<rect x="40.70" y="32.50" width="2.2" height="27" />
<rect x="44.40" y="28.00" width="2.2" height="36" />
<rect x="48.10" y="25.00" width="2.2" height="42" />
<rect x="51.80" y="26.50" width="2.2" height="39" />
<rect x="55.50" y="30.00" width="2.2" height="32" />
<rect x="59.20" y="34.00" width="2.2" height="24" />
<rect x="62.90" y="38.00" width="2.2" height="16" />
<rect x="66.60" y="41.00" width="2.2" height="10" />
<rect x="70.30" y="43.00" width="2.2" height="6"  />
<rect x="74.00" y="44.00" width="2.2" height="4"  />
</g>
</svg>
